#format: frame checksums
#version: 2
#hash: MD5
#tb 0: 1/30
#media_type 0: video
#codec_id 0: rawvideo
#dimensions 0: 176x144
#sar 0: 0/1
#stream#, dts,        pts, duration,     size, hash
0,          0,          0,        1,    38016, 83c78b5db579710f61f9354d5c51e8c8
0,          1,          1,        1,    38016, d173eb8a8211a05672b43206609c9034
0,          2,          2,        1,    38016, 204e3e91613d647d30244c00fa2b9563
0,          3,          3,        1,    38016, 3cc1a395bd10a49b006741778285925b
0,          4,          4,        1,    38016, 024548b00dea4f104d6b9a728be05786
0,          5,          5,        1,    38016, 01401e9418f2e00ab4ffdb3296d40ffa
0,          6,          6,        1,    38016, 35d8b3c1ef9cb864315b7502b93629b2
0,          7,          7,        1,    38016, aeb44f0fe4c2eecb26c0bd657d65b00b
0,          8,          8,        1,    38016, 42e40bed012bacf59f0c41d4cfd3e52a
0,          9,          9,        1,    38016, 9796191fa2bd4572123ea043396e8485
0,         10,         10,        1,    38016, 2d6d68b902129f3c3f1730e73b98f9c9
0,         11,         11,        1,    38016, ba348b89248b92d0b86d794dc413e6a0
0,         12,         12,        1,    38016, 5ce49bf164033d49bef1b23120d202d6
0,         13,         13,        1,    38016, 54837a426c63a9c40ef8750232615dad
0,         14,         14,        1,    38016, 350bcddf9a34f5003f6f655aaa020a00
0,         15,         15,        1,    38016, babb82b1e2ca9315816b6f43b8ef84a0
0,         16,         16,        1,    38016, c770825785c51fa374fd5bb08ff9f536
0,         17,         17,        1,    38016, e9e0f92e416fcd27ca2e93a0804ac938
0,         18,         18,        1,    38016, e0f2b89423da549eaa8b2b89f956f0f8
0,         19,         19,        1,    38016, 9926b7e13b51115735eb0af8bb5e4ea1
0,         20,         20,        1,    38016, d6b30a058b854c54068ebfc2b05f8fa0
0,         21,         21,        1,    38016, a03048df79e41ada8a3ecc15a85e3f94
0,         22,         22,        1,    38016, 34bef9af0633a43434841fd5189c161c
0,         23,         23,        1,    38016, 219b447552b1ee409c1b9b56176d36bf
0,         24,         24,        1,    38016, 95ea99459eaebc2f7233feeaf0549224
0,         25,         25,        1,    38016, 34e08ce4067ca67ee9014cf628b6bb1c
0,         26,         26,        1,    38016, 066c09a20d11b9dc3fa6972fd7f242c4
0,         27,         27,        1,    38016, aed02c1951070ae5febea21ad54add55
0,         28,         28,        1,    38016, f5a0fde2d818c4aaabd29b069ced6aea
